Quote:
General
Complete name : Pathinaru 
Format : AVI
Format/Info : Audio Video Interleave
File size : 705 MiB
Duration : 1h 49mn
Overall bit rate : 899 Kbps

Video
ID : 0
Format : MPEG-4 Visual
Format profile : Simple@L3
Format settings, BVOP : No
Format settings, QPel : No
Format settings, GMC : No warppoints
Format settings, Matrix : Default (H.263)
Codec ID : XVID
Codec ID/Hint : XviD
Duration : 1h 49mn
Bit rate : 757 Kbps
Width : 608 pixels
Height : 256 pixels
Display aspect ratio : 2.35:1
Frame rate : 29.970 fps
Color space : YUV
Chroma subsampling : 4:2:0
Bit depth : 8 bits
Scan type : Progressive
Compression mode : Lossy
Bits/(Pixel*Frame) : 0.162
Stream size : 593 MiB (84%)
Writing library : XviD 1.1.2 (UTC 2006-11-01)

Audio
ID : 1
Format : MPEG Audio
Format version : Version 1
Format profile : Layer 3
Mode : Joint stereo
Mode extension : MS Stereo
Codec ID : 55
Codec ID/Hint : MP3
Duration : 1h 49mn
Bit rate mode : Constant
Bit rate : 128 Kbps
Channel(s) : 2 channels
Sampling rate : 48.0 KHz
Compression mode : Lossy
Stream size : 100 MiB (14%)
Alignment : Split accross interleaves
Interleave, duration : 24 ms (0.72 video frame)

 
http://img94.imageshack.us/img94/9696/i58911vlcsnap256270.png

 
http://img706.imageshack.us/img706/2265/i58915vlcsnap251514.png

 
http://img148.imageshack.us/img148/5214/vlcsnap256572.png


 
http://img15.imageshack.us/img15/647/i58912vlcsnap248263.png